# xmcd CD database file
#
# Track frame offsets:
#	187
#	32994
#	60457
#	89754
#	115917
#	153262
#	181314
#	206107
#	238942
#	274749
#
# Disc length: 3967 seconds
#
# Revision: 0
# Processed by: cddbd v1.5.2PL0 Copyright (c) Steve Scherf et al.
# Submitted via: CDex 1.77
#
DISCID=8f0f7d0a
DTITLE=The Bill Holman Band - A view From the Side
DYEAR=1996
DGENRE=Jazz
TTITLE0=No Joy in Mudville
TTITLE1=Any Dude'll Do
TTITLE2=But Beautiful
TTITLE3=Petaluma Lu
TTITLE4=I Didn't Ask
TTITLE5=Make My Day
TTITLE6=The Peacocks
TTITLE7=A view From The Side
TTITLE8=Tennessee Waltz
TTITLE9=Lightnin'
EXTD=YEAR: 1996
EXTT0=
EXTT1=
EXTT2=
EXTT3=
EXTT4=
EXTT5=
EXTT6=
EXTT7=
EXTT8=
EXTT9=
PLAYORDER=
